<svg width="66" height="42" viewBox="0 0 66 42" fill="none" xmlns="http://www.w3.org/2000/svg">
<path d="M13.62 18.18L13.02 23.76H6.9V42H1.2V5.58H0.3L0.9 -2.86102e-06H14.82L14.22 5.58H6.9V18.18H13.62ZM20.4797 42H14.7797L18.0197 5.58H16.9397L17.5397 -2.86102e-06H28.5197L32.2397 42H26.5397L25.8797 34.8H21.1397L20.4797 42ZM21.6197 29.22H25.3997L23.5397 8.34L21.6197 29.22ZM33.4125 5.58L34.0125 -2.86102e-06H43.4925C45.1725 -2.86102e-06 46.5325 0.519998 47.5725 1.56C48.6125 2.56 49.1325 3.9 49.1325 5.58V24.36C49.1325 25.24 48.9525 26.04 48.5925 26.76C48.2325 27.44 47.7525 28.02 47.1525 28.5L50.9925 42H45.2325L41.8125 29.94H40.0125V42H34.3125V5.58H33.4125ZM43.1325 5.58H40.0125V24.36H43.1325C43.3325 24.36 43.4325 24.26 43.4325 24.06V5.88C43.4325 5.68 43.3325 5.58 43.1325 5.58ZM65.7966 36.42L65.3166 42H52.1766V5.58H51.2766L51.8766 -2.86102e-06H65.7966L65.1966 5.58H57.8766V18.18H64.5966L63.9966 23.76H57.8766V36.42H65.7966Z" fill="#BABABA"/>
</svg>
