<svg width="12" height="12" viewBox="0 0 12 12" fill="none" xmlns="http://www.w3.org/2000/svg">
<path d="M3.71591 8.49432V3.25284H6.37216C6.58523 3.25284 6.81724 3.31439 7.06818 3.4375C7.31913 3.55587 7.5322 3.74053 7.70739 3.99148C7.88731 4.23769 7.97727 4.55019 7.97727 4.92898C7.97727 5.3125 7.88494 5.6392 7.70028 5.90909C7.51563 6.17424 7.29072 6.37547 7.02557 6.51278C6.76515 6.65009 6.51894 6.71875 6.28693 6.71875H4.36932V5.86648H5.93182C6.08807 5.86648 6.25616 5.78835 6.43608 5.6321C6.62074 5.47585 6.71307 5.24148 6.71307 4.92898C6.71307 4.60701 6.62074 4.3892 6.43608 4.27557C6.25616 4.16193 6.09754 4.10511 5.96023 4.10511H4.86648V8.49432H3.71591ZM6.88352 6.02273L8.19034 8.49432H6.92614L5.64773 6.02273H6.88352ZM5.70455 11.6193C4.91856 11.6193 4.18229 11.4725 3.49574 11.179C2.80919 10.8854 2.20549 10.4782 1.68466 9.95739C1.16383 9.43655 0.756629 8.83286 0.463068 8.14631C0.169508 7.45975 0.0227273 6.72348 0.0227273 5.9375C0.0227273 5.15152 0.169508 4.41525 0.463068 3.72869C0.756629 3.04214 1.16383 2.43845 1.68466 1.91761C2.20549 1.39678 2.80919 0.989583 3.49574 0.696023C4.18229 0.402462 4.91856 0.255681 5.70455 0.255681C6.49053 0.255681 7.2268 0.402462 7.91335 0.696023C8.59991 0.989583 9.2036 1.39678 9.72443 1.91761C10.2453 2.43845 10.6525 3.04214 10.946 3.72869C11.2396 4.41525 11.3864 5.15152 11.3864 5.9375C11.3864 6.72348 11.2396 7.45975 10.946 8.14631C10.6525 8.83286 10.2453 9.43655 9.72443 9.95739C9.2036 10.4782 8.59991 10.8854 7.91335 11.179C7.2268 11.4725 6.49053 11.6193 5.70455 11.6193ZM5.70455 10.2557C6.5 10.2557 7.22443 10.0616 7.87784 9.6733C8.53125 9.28504 9.05208 8.7642 9.44034 8.1108C9.8286 7.45739 10.0227 6.73295 10.0227 5.9375C10.0227 5.14205 9.8286 4.41761 9.44034 3.7642C9.05208 3.11079 8.53125 2.58996 7.87784 2.2017C7.22443 1.81345 6.5 1.61932 5.70455 1.61932C4.90909 1.61932 4.18466 1.81345 3.53125 2.2017C2.87784 2.58996 2.35701 3.11079 1.96875 3.7642C1.58049 4.41761 1.38636 5.14205 1.38636 5.9375C1.38636 6.73295 1.58049 7.45739 1.96875 8.1108C2.35701 8.7642 2.87784 9.28504 3.53125 9.6733C4.18466 10.0616 4.90909 10.2557 5.70455 10.2557Z" fill="#BABABA"/>
</svg>
